{
  "extensionsUsed": [
    "KHR_materials_transmission",
    "KHR_materials_clearcoat",
    "KHR_materials_ior",
    "KHR_materials_specular",
    "KHR_materials_emissive_strength",
    "KHR_texture_transform"
  ],
  "accessors": [
    {
      "bufferView": 0,
      "componentType": 5126,
      "count": 1654,
      "type": "VEC3",
      "max": [
        0.09305057,
        0.07756832,
        0.09305057
      ],
      "min": [
        -0.09305057,
        -0.08263179,
        -0.09305057
      ]
    },
    {
      "bufferView": 1,
      "componentType": 5125,
      "count": 8646,
      "type": "SCALAR",
      "max": [
        1653.0
      ],
      "min": [
        0.0
      ]
    },
    {
      "bufferView": 2,
      "componentType": 5126,
      "count": 1654,
      "type": "VEC3",
      "max": [
        0.9989216,
        1.0,
        0.9989216
      ],
      "min": [
        -0.9989216,
        -1.0,
        -0.9989216
      ]
    }
  ],
  "asset": {
    "version": "2.0"
  },
  "buffers": [
    {
      "uri": "data:application/octet-stream;base64,",
      "byteLength": 19848
    },
    {
      "uri": "data:application/octet-stream;base64,",
      "byteLength": 34584
    },
    {
      "uri": "data:application/octet-stream;base64,",
      "byteLength": 19848
    }
  ],
  "bufferViews": [
    {
      "buffer": 0,
      "byteLength": 19848,
      "target": 34962
    },
    {
      "buffer": 1,
      "byteLength": 34584,
      "target": 34963
    },
    {
      "buffer": 2,
      "byteLength": 19848,
      "target": 34962
    }
  ],
  "meshes": [
    {
      "primitives": [
        {
          "attributes": {
            "POSITION": 0,
            "NORMAL": 2
          },
          "indices": 1
        }
      ]
    }
  ],
  "nodes": [
    {
      "mesh": 0,
      "name": "AmbientLightSensor"
    }
  ],
  "samplers": [
    {
      "magFilter": 9729,
      "minFilter": 9729
    }
  ],
  "scene": 0,
  "scenes": [
    {
      "nodes": [
        0
      ],
      "extensions": {}
    }
  ],
  "extensions": {}
}