{
  "extensionsUsed": [
    "KHR_materials_transmission",
    "KHR_materials_clearcoat",
    "KHR_materials_ior",
    "KHR_materials_specular",
    "KHR_materials_emissive_strength",
    "KHR_texture_transform"
  ],
  "accessors": [
    {
      "bufferView": 0,
      "componentType": 5126,
      "count": 1262,
      "type": "VEC3",
      "max": [
        0.09194222,
        0.065073036,
        0.02214089
      ],
      "min": [
        -0.09194222,
        -0.11870268,
        -0.02214089
      ]
    },
    {
      "bufferView": 1,
      "componentType": 5125,
      "count": 4152,
      "type": "SCALAR",
      "max": [
        1261.0
      ],
      "min": [
        0.0
      ]
    },
    {
      "bufferView": 2,
      "componentType": 5126,
      "count": 1262,
      "type": "VEC3",
      "max": [
        0.99999785,
        0.9994066,
        1.0
      ],
      "min": [
        -0.99999785,
        -0.9994066,
        -1.0
      ]
    },
    {
      "bufferView": 3,
      "componentType": 5126,
      "count": 1262,
      "type": "VEC2",
      "max": [
        0.99853516,
        0.9522686
      ],
      "min": [
        0.0,
        0.0
      ]
    }
  ],
  "asset": {
    "version": "2.0"
  },
  "buffers": [
    {
      "uri": "data:application/octet-stream;base64,",
      "byteLength": 15144
    },
    {
      "uri": "data:application/octet-stream;base64,",
      "byteLength": 16608
    },
    {
      "uri": "data:application/octet-stream;base64,",
      "byteLength": 15144
    },
    {
      "uri": "data:application/octet-stream;base64,",
      "byteLength": 10096
    }
  ],
  "bufferViews": [
    {
      "buffer": 0,
      "byteLength": 15144,
      "target": 34962
    },
    {
      "buffer": 1,
      "byteLength": 16608,
      "target": 34963
    },
    {
      "buffer": 2,
      "byteLength": 15144,
      "target": 34962
    },
    {
      "buffer": 3,
      "byteLength": 10096,
      "target": 34962
    }
  ],
  "meshes": [
    {
      "primitives": [
        {
          "attributes": {
            "POSITION": 0,
            "NORMAL": 2,
            "TEXCOORD_0": 3
          },
          "indices": 1
        }
      ]
    }
  ],
  "nodes": [
    {
      "mesh": 0,
      "name": "Hygrometer"
    }
  ],
  "samplers": [
    {
      "magFilter": 9729,
      "minFilter": 9729
    }
  ],
  "scene": 0,
  "scenes": [
    {
      "nodes": [
        0
      ],
      "extensions": {}
    }
  ],
  "extensions": {}
}