{
  "extensionsUsed": [
    "KHR_materials_transmission",
    "KHR_materials_clearcoat",
    "KHR_materials_ior",
    "KHR_materials_specular",
    "KHR_materials_emissive_strength",
    "KHR_texture_transform"
  ],
  "accessors": [
    {
      "bufferView": 0,
      "componentType": 5126,
      "count": 22264,
      "type": "VEC3",
      "max": [0.065992, 0.08867684, 0.065992],
      "min": [-0.065992, -0.14660008, -0.065992]
    },
    {
      "bufferView": 1,
      "componentType": 5125,
      "count": 131334,
      "type": "SCALAR",
      "max": [22263.0],
      "min": [0.0]
    },
    {
      "bufferView": 2,
      "componentType": 5126,
      "count": 22264,
      "type": "VEC3",
      "max": [1.0, 1.0, 1.0],
      "min": [-1.0, -0.9992496, -1.0]
    }
  ],
  "asset": {
    "version": "2.0"
  },
  "buffers": [
    {
      "uri": "data:application/octet-stream;base64,",
      "byteLength": 267168
    },
    {
      "uri": "data:application/octet-stream;base64,",
      "byteLength": 525336
    },
    {
      "uri": "data:application/octet-stream;base64,",
      "byteLength": 267168
    }
  ],
  "bufferViews": [
    {
      "buffer": 0,
      "byteLength": 267168,
      "target": 34962
    },
    {
      "buffer": 1,
      "byteLength": 525336,
      "target": 34963
    },
    {
      "buffer": 2,
      "byteLength": 267168,
      "target": 34962
    }
  ],
  "meshes": [
    {
      "primitives": [
        {
          "attributes": {
            "POSITION": 0,
            "NORMAL": 2
          },
          "indices": 1
        }
      ]
    }
  ],
  "nodes": [
    {
      "mesh": 0,
      "name": "Light"
    }
  ],
  "samplers": [
    {
      "magFilter": 9729,
      "minFilter": 9729
    }
  ],
  "scene": 0,
  "scenes": [
    {
      "nodes": [0],
      "extensions": {}
    }
  ],
  "extensions": {}
}
