{
  "extensionsUsed": [
    "KHR_materials_transmission",
    "KHR_materials_clearcoat",
    "KHR_materials_ior",
    "KHR_materials_specular",
    "KHR_materials_emissive_strength",
    "KHR_texture_transform"
  ],
  "accessors": [
    {
      "bufferView": 0,
      "componentType": 5126,
      "count": 2738,
      "type": "VEC3",
      "max": [
        0.026408931,
        0.10983324,
        0.014510565
      ],
      "min": [
        -0.026408942,
        -0.14342932,
        -0.0149387885
      ]
    },
    {
      "bufferView": 1,
      "componentType": 5125,
      "count": 13308,
      "type": "SCALAR",
      "max": [
        2737.0
      ],
      "min": [
        0.0
      ]
    },
    {
      "bufferView": 2,
      "componentType": 5126,
      "count": 2738,
      "type": "VEC3",
      "max": [
        1.0,
        1.0,
        1.0
      ],
      "min": [
        -1.0,
        -1.0,
        -1.0
      ]
    }
  ],
  "asset": {
    "version": "2.0"
  },
  "buffers": [
    {
      "uri": "data:application/octet-stream;base64,",
      "byteLength": 32856
    },
    {
      "uri": "data:application/octet-stream;base64,",
      "byteLength": 53232
    },
    {
      "uri": "data:application/octet-stream;base64,",
      "byteLength": 32856
    }
  ],
  "bufferViews": [
    {
      "buffer": 0,
      "byteLength": 32856,
      "target": 34962
    },
    {
      "buffer": 1,
      "byteLength": 53232,
      "target": 34963
    },
    {
      "buffer": 2,
      "byteLength": 32856,
      "target": 34962
    }
  ],
  "meshes": [
    {
      "primitives": [
        {
          "attributes": {
            "POSITION": 0,
            "NORMAL": 2
          },
          "indices": 1
        }
      ]
    }
  ],
  "nodes": [
    {
      "mesh": 0,
      "name": "Thermometer"
    }
  ],
  "samplers": [
    {
      "magFilter": 9729,
      "minFilter": 9729
    }
  ],
  "scene": 0,
  "scenes": [
    {
      "nodes": [
        0
      ],
      "extensions": {}
    }
  ],
  "extensions": {}
}