<?xml version="1.0" encoding="UTF-8"?>
<svg id="Layer_2" data-name="Layer 2" xmlns="http://www.w3.org/2000/svg" viewBox="0 0 132.28 127.73">
  <defs>
    <style>
      .cls-1 {
        fill: #fff;
      }

      .cls-2 {
        fill: #9da5ad;
      }
    </style>
  </defs>
  <g id="R_Image" data-name="R Image">
    <g>
      <path d="M132.28,94.36v18c-3.55,8.99-9.06,12.84-18.63,13.87-26.6,2.89-67.18.8-94.92.17-2.06-.05-3.88-.79-5.86-1.13,0,0-4.32-1.33-6.11-2.91-10.55-9.29-5.67-25.31-5.45-37.47.17-9.32-.51-18.78-.08-28.08C1.77,45.28,5.91,18.22,10.2,7.79,11.97,3.49,16.23.73,20.73.31c11.46-1.07,27.16,1.94,39,2.1,15.97.2,36.3-3.5,51.09-2.09,6.15.59,10.01,3.09,11.99,9.01,8.6,25.7,8.22,55.7,8.43,82.61l1.04,2.42ZM19.99,5.58c-2.19.5-4.09,2.05-4.79,4.2-1.28,11.33-6.83,24.05-7.91,35.09-1.67,17.01-.81,37.68-.97,55.03-.02,2.4-1.12,4.61-1.12,6.96,0,5.56,3.53,12.2,9.56,12.52,32.46-2.63,70.27,3.42,102.09.04,5.2-.55,9.67-3.91,9.48-9.52-.93-32.38,1.58-67.49-8.52-98.58-1.33-4.09-3.65-5.81-8-6.06-6.73-.39-16.85,1.93-23.99,2.14-12.59.37-26.51.39-39.09,0-7.05-.22-20.57-3.22-26.75-1.82Z"/>
      <g>
        <path class="cls-2" d="M122.27,112.36c-1.94-.41-1.76-2.01-2-3.49-1.15-7.1-2.26-15.89-2.94-23.05-.21-2.22-1.34-5.83.45-7.45,3.09,10.89,4.04,22.64,4.48,33.99Z"/>
        <path class="cls-2" d="M12.26,113.36c-2.81-1.01-1.12-6.76-.85-9.36.7-6.84,1.58-15.49,2.87-22.13.28-1.45-.02-3.1,1.98-3.51l-4,35Z"/>
      </g>
      <g>
        <path d="M47.28,29.37c-.07,1.5,1.9,1.24,3.01,2.46,1.14,1.26,8.93,11.65,7.98,12.52-13.52,3.63-11.43-10.93-21.47-14.07l-2.37,1.73-.15,12.35h-8.01s3-29.01,3-29.01c5.82.6,12.94-.79,18.55-.05,8.51,1.12,8.35,13.13-.54,14.06ZM46.05,19.6l-9.84-.8-.94,6.57c4.97-.02,13.89,1.64,10.78-5.76Z"/>
        <path class="cls-2" d="M11.28,40.36l1.99,8.51c.97,8.24-3.89,23.36,7.55,25.45,8.31,1.52,18.46.67,26.95,1.05,10.65.48,21.24,1.33,32.05,1.03,7.92-.22,26.51-.64,33.3-2.7,2.37-.72,5.66-3.33,6.14-5.86,1.43-7.55-.23-20.29,1.03-28.47l1.98,15.51c.31,10.48,1.16,20.11-11.73,22.25-19.08,3.18-66.36,2.9-85.75.23-3.28-.45-13.51-3.63-13.51-7.49v-29.5Z"/>
        <path class="cls-1" d="M46.05,19.6c3.11,7.41-5.81,5.74-10.78,5.76l.94-6.57,9.84.8Z"/>
      </g>
    </g>
    <path class="cls-1" d="M19.99,5.58c6.18-1.4,19.7,1.6,26.75,1.82,12.58.4,26.5.38,39.09,0,7.14-.21,17.25-2.53,23.99-2.14,4.34.25,6.67,1.98,8,6.06,10.09,31.08,7.59,66.2,8.52,98.58.19,5.61-4.28,8.96-9.48,9.52-31.82,3.38-69.63-2.67-102.09-.04-6.03-.32-9.56-6.96-9.56-12.52,0-2.35,1.1-4.56,1.12-6.96.16-17.35-.7-38.02.97-55.03,1.08-11.04,6.63-23.76,7.91-35.09.7-2.15,2.6-3.71,4.79-4.2ZM47.28,29.37c8.89-.93,9.05-12.94.54-14.06-5.62-.74-12.74.65-18.55.05l-3,29.01h8.01s.15-12.35.15-12.35l2.37-1.73c10.05,3.14,7.95,17.7,21.47,14.07.95-.87-6.84-11.26-7.98-12.52-1.11-1.22-3.08-.96-3.01-2.46ZM11.28,40.36v29.5c0,3.87,10.22,7.04,13.51,7.49,19.4,2.67,66.67,2.95,85.75-.23,12.88-2.14,12.04-11.77,11.73-22.25l-1.98-15.51c-1.26,8.18.39,20.93-1.03,28.47-.48,2.54-3.77,5.14-6.14,5.86-6.78,2.06-25.38,2.48-33.3,2.7-10.81.3-21.4-.55-32.05-1.03-8.48-.38-18.63.46-26.95-1.05-11.45-2.09-6.58-17.21-7.55-25.45l-1.99-8.51ZM12.26,113.36l4-35c-1.99.41-1.7,2.06-1.98,3.51-1.29,6.64-2.17,15.29-2.87,22.13-.27,2.6-1.96,8.35.85,9.36ZM122.27,112.36c-.45-11.35-1.39-23.11-4.48-33.99-1.79,1.62-.66,5.23-.45,7.45.68,7.16,1.79,15.95,2.94,23.05.24,1.49.05,3.09,2,3.49Z"/>
  </g>
</svg>