<?xml version="1.0" encoding="UTF-8"?>
<svg id="Layer_2" data-name="Layer 2" xmlns="http://www.w3.org/2000/svg" viewBox="0 0 156.48 242.03">
  <defs>
    <style>
      .cls-1 {
        fill: #fff;
      }
    </style>
  </defs>
  <g id="Mouse_Image" data-name="Mouse Image">
    <g>
      <path d="M69.04,241.84C31.43,237.64,1.04,205.46,0,167.44,3.3,124.75-.98,77.77,4.16,35.62,7.08,11.72,30.73,6.5,50.83,2.31,74.91-2.69,120.2-.06,140.54,15.02c16.07,11.91,11.7,44.3,12.46,62.49,1.15,27.55,4.64,60.74,3.09,87.94-2.41,42.37-33.58,74.56-76.05,76.39-3.26.14-7.87.35-11,0ZM75.04,4.02c-15.83,1.17-35.16,4.31-49.68,10.81C8.68,22.31,8.97,35.09,8,51.44c-.77,13.05-.3,26.43-.95,39.51,22.4-4.64,45-8.63,68-8.99v-13.99c-10.54-.64-11.77-10.83-12.04-19.43-.14-4.38.42-16.77,1.5-20.58,1.14-4.01,6.34-7.99,10.54-7.95V4.02ZM79.04,4.02v15.99c4.01-.96,10.49,4.49,11.55,7.94s.95,28.31-.03,32.06c-1.93,7.47-10.59,7.26-11.39,9.6l-.14,12.36c23.68.68,46.98,4.09,70.01,8.99.81-4.27-.91-8.48-1.04-12.45-.44-13.13.2-26.88-.97-39.99-1.53-17.14-11.08-22.13-25.99-26.99-13.28-4.32-28.07-7.06-41.99-7.5ZM73.75,25.22c-2.18.65-4.3,4.14-4.65,6.34-.62,3.92-.74,22.21-.03,25.9,1.41,7.4,15.43,8.41,16.92-1.03.69-4.38.69-20.47,0-24.86-.89-5.7-7.04-7.89-12.24-6.34ZM26.39,216.51c50.6,50.05,135.35,3.52,124.69-66.14l-2.5-54.46c-45.78-14.08-95.4-12.52-141.5-.92-1.75,13.42-.71,26.95-1,40.47-.68,31.39-4.38,56.62,20.31,81.05Z"/>
      <path class="cls-1" d="M26.39,216.51C1.7,192.09,5.4,166.85,6.08,135.46c.29-13.52-.75-27.05,1-40.47,46.1-11.6,95.72-13.16,141.5.92l2.5,54.46c10.66,69.66-74.09,116.19-124.69,66.14Z"/>
      <path class="cls-1" d="M79.04,4.02c13.92.44,28.72,3.18,41.99,7.5,14.91,4.85,24.46,9.85,25.99,26.99,1.17,13.11.53,26.87.97,39.99.13,3.97,1.85,8.18,1.04,12.45-23.03-4.91-46.32-8.31-70.01-8.99l.14-12.36c.8-2.34,9.46-2.13,11.39-9.6.97-3.75,1.11-28.56.03-32.06s-7.55-8.9-11.55-7.94V4.02Z"/>
      <path class="cls-1" d="M75.04,4.02v15.99c-4.2-.03-9.4,3.94-10.54,7.95s-1.64,16.19-1.5,20.58c.27,8.6,1.51,18.79,12.04,19.43v13.99c-23,.36-45.59,4.36-68,8.99.65-13.08.18-26.47.95-39.51.97-16.36.68-29.13,17.36-36.61,14.52-6.51,33.84-9.65,49.68-10.81Z"/>
      <path class="cls-1" d="M73.75,25.22c5.2-1.55,11.34.64,12.24,6.34.69,4.39.7,20.48,0,24.86-1.49,9.44-15.51,8.44-16.92,1.03-.7-3.69-.59-21.98.03-25.9.35-2.21,2.46-5.69,4.65-6.34Z"/>
    </g>
  </g>
</svg>