<?xml version="1.0" encoding="UTF-8"?>
<svg id="Layer_2" data-name="Layer 2" xmlns="http://www.w3.org/2000/svg" viewBox="0 0 131.8 127.49">
  <defs>
    <style>
      .cls-1 {
        fill: #fff;
      }

      .cls-2 {
        fill: #9da5ad;
      }
    </style>
  </defs>
  <g id="Q_Image" data-name="Q Image">
    <g>
      <path d="M13.45,125.91c-1.86-1.05-4.96-.38-6.16-1.17-2.45-1.61-5.59-9.07-7.25-11.73.1-7.65-.14-15.35,0-23C.32,74.47,2.6,13.89,12.82,3.99c1.88-1.82,5.22-2.29,7.22-3.99h3c13.16,1.69,27.2,3.05,40.46,3.07,13.4.02,35.94-3.9,48.03-2.09,2.9.43,5.37,1.47,7.47,3.52,3.15,3.21,10.4,35.88,10.98,42.02,1.16,12.42,3.01,57.3.79,67.74-.58,2.73-3.97,7.23-6.25,8.74-10.44,6.92-70.67,3.72-87.05,3.9l-15.8.03M16.35,8.3c-1.27,1.43-8.9,33.43-9.29,37.22-1.46,14.31-2.9,51.58-1.08,65.05.89,6.59,4.22,8.67,10.51,9.48,18.22,2.35,80.75,2.29,99.07,0,5.46-.68,9.54-3.87,10.49-9.51,1.71-10.21-.65-54.41-2.05-66.02-.48-3.94-7.3-33.94-8.52-35.48-4.19-5.33-20.5-1.1-26.92-1-14.3.23-28.77.25-43.07.01-6.45-.11-25.14-4.25-29.13.25Z"/>
      <g>
        <polygon class="cls-2" points="12.02 112.99 10.12 111.6 15.54 78.02 12.02 112.99"/>
        <path class="cls-2" d="M117.99,79l4,35c-2.98-8.11-5.86-22.71-5.96-31.53-.02-1.94-1.06-4.02,1.96-3.47Z"/>
      </g>
      <g>
        <path class="cls-1" d="M16.35,8.3c3.99-4.5,22.68-.36,29.13-.25,14.3.23,28.77.22,43.07-.01,6.42-.1,22.73-4.33,26.92,1,1.21,1.54,8.04,31.54,8.52,35.48,1.41,11.61,3.76,55.81,2.05,66.02-.94,5.64-5.02,8.83-10.49,9.51-18.32,2.29-80.84,2.35-99.07,0-6.29-.81-9.63-2.9-10.51-9.48-1.81-13.47-.38-50.74,1.08-65.05.39-3.79,8.02-35.78,9.29-37.22ZM53.91,47.89l1.05-5.26-4.94-3.16c10.53-18.32-11.15-29.87-25.38-18.37-8.23,10.64-2.8,24,10.92,24.93,3.73.25,7.69-1.86,9.58-1.54s5.96,5.21,8.77,3.41ZM11.04,40v30.5c2.35,3.58,4.94,5.74,9.18,6.82,11.84,3,82.29,3.19,93.02-.58,12.6-4.43,7.7-28.51,5.76-38.74v30.5c0,3.61-6.92,5.64-9.76,6.24-15.02,3.16-72.98,3.58-87.64.19-3.53-.82-6.25-2.73-8.57-5.43v-28l-2-1.5ZM12.02,112.99l3.52-34.97-5.42,33.58,1.9,1.39ZM117.99,79c-3.03-.55-1.99,1.53-1.96,3.47.1,8.82,2.98,23.42,5.96,31.53l-4-35Z"/>
        <path d="M53.91,47.89c-2.81,1.81-6.97-3.1-8.77-3.41s-5.85,1.79-9.58,1.54c-13.72-.93-19.15-14.29-10.92-24.93,14.23-11.51,35.91.05,25.38,18.37l4.94,3.16-1.05,5.26ZM44.02,36c7.04-17.31-17.44-21.99-15.01-3.5l2.09,4.94,6.94,2.55-3.08-2.58,2.57-4.12,6.5,2.72Z"/>
        <path class="cls-2" d="M11.04,40l2,1.5v28c2.32,2.7,5.04,4.62,8.57,5.43,14.66,3.39,72.62,2.96,87.64-.19,2.84-.6,9.76-2.63,9.76-6.24v-30.5c1.94,10.22,6.84,34.31-5.76,38.74-10.73,3.77-81.19,3.58-93.02.58-4.24-1.07-6.83-3.23-9.18-6.82v-30.5Z"/>
        <path class="cls-1" d="M44.02,36l-6.5-2.72-2.57,4.12,3.08,2.58-6.94-2.55-2.09-4.94c-2.43-18.49,22.06-13.81,15.01,3.5Z"/>
      </g>
    </g>
  </g>
</svg>