<?xml version="1.0" encoding="UTF-8"?>
<svg id="Layer_2" data-name="Layer 2" xmlns="http://www.w3.org/2000/svg" viewBox="0 0 414.06 240.27">
  <defs>
    <style>
      .cls-1 {
        fill: #fff;
      }

      .cls-2 {
        fill: #9da5ad;
      }
    </style>
  </defs>
  <g id="Layer_1-2" data-name="Layer 1">
    <g>
      <g>
        <path d="M414.06,225c-1.8,1.99-3.62,8.21-5.29,9.71-.38.34-4.76,2.7-5.25,2.81-1.6.36-9.21.83-10.76.46-.81-.19-5.27.18-7.12-.06-3.63-.48-84.82,1.14-92.6.63-15.62-5.55-13.28-20.34-13.01-34.09.26-13.34.2-27.64,1-41,.58-9.77,5.42-37.18,9.31-45.69,5.68-12.45,21.6-6.06,32.19-5.72,15.54.5,32.52.38,48.09,0,11.71-.29,28.75-6.97,33.95,7.97,9.17,26.36,8.1,58.87,8.47,86.57l1.04,18.42ZM298.77,116.21c-2.2.93-3.25,2.82-4.03,4.97-9.84,26.87-8.06,59.18-8.64,87.36-.19,9.32-4.11,23.17,10.41,24.51,32.03,2.96,68.56-2.33,101.07-.02,4.97-.6,10.21-4.27,10.5-9.5-.52-33.82,1.38-68.97-8.47-101.58-1.43-4.75-3.24-5.55-8-5.99-9.52-.89-23.06,1.81-33,2.09-9.82.28-19.37-.78-29.01-1.09-10.27-.33-20.56-.7-30.83-.75Z"/>
        <path d="M303.06,150c.32-.98-1-2.17-1-2.5v-23l1.5-1.5h18c1.62,0,8.15,3.02,9.52,4.48,4.21,4.48,4.05,12.53.04,17.08-1.73,1.96-8.23,5.44-10.56,5.44h-17.5ZM309.06,145c5.29-.47,14.52,2.09,17.24-4.25,4.76-11.06-8.65-17.32-17.24-12.25v16.5Z"/>
        <path class="cls-2" d="M401.06,154.5c.13-.85,1.13-2.9,2-2.5v30.5c0,1.64-7.35,6.06-9.56,6.44-18.66,3.24-46.76,2.85-65.99,2.11-7.46-.29-27.06-.92-32.38-4.62-.74-.51-4.07-3.65-4.07-3.93v-33.5l1.99,13.51c1.18,10.35-4.62,21.5,8.97,24.03,5.33.99,15.61,1.27,21.5,1.5,19.32.76,49.15,1.42,67.78-1.3,2.22-.32,9.76-2.96,9.76-5.24,0-7.67-1.09-20.05,0-27Z"/>
        <path class="cls-2" d="M292.06,226c-2.58.39-2.1-.39-1.99-2.48.4-7.98,2.45-22.02,4.01-30.01.28-1.45-.02-3.1,1.98-3.51l-3.99,36Z"/>
        <path class="cls-2" d="M404.05,225.99c-1.5-.2-1.65-4.31-1.85-5.63-1.55-9.99-2.52-20.25-3.13-30.36l2.86,11.62,2.12,24.37Z"/>
        <path class="cls-1" d="M309.06,145v-16.5c8.59-5.07,22,1.19,17.24,12.25-2.73,6.34-11.96,3.78-17.24,4.25Z"/>
      </g>
      <g>
        <g>
          <path d="M190.03,130.96c-6.9,3.3-6.27-2.11-7.57-3.04-2.23-1.6-11.69-1.68-12.4,1.6-.94,4.36,16.84,3.33,19.89,8.08,9.24,14.39-29.06,18.42-27.9,2.41,6.59-1.69,6.26,2.35,9.07,4.43,4.74,3.5,16.19.57,12.84-4.35-1.37-2.01-19.97-1.83-20.94-8.64-1.66-11.68,27.08-12.96,27-.49Z"/>
          <path class="cls-2" d="M150.06,152c.65-.08,2,1.33,2,1.5v27c0,3.21,7.48,6.17,10.5,6.5,23.81,2.65,62.06,2.35,85.99-.02,3.58-.35,12.51-3.2,12.51-7.49v-30.5h.99c-.85,1.87,1.01,4.62,1.01,5.5v27c0,1.39-5.34,6.11-7.27,6.73-5.12,1.67-18.3,2.53-24.19,2.81-15.19.72-33.88.67-49.09,0-6.26-.27-18.92-.88-24.48-2.52-2.22-.65-7.97-4.88-7.97-7.03v-29.5Z"/>
          <path class="cls-2" d="M264.05,226c-1.99-.41-1.7-2.06-1.98-3.51-2.01-10.33-2.66-21.98-4-32.49,2.09.71,2.39,3.91,2.73,5.76,1.76,9.59,2.18,20.47,3.25,30.24Z"/>
          <path class="cls-2" d="M151.05,226c-2.67-.92-1.22-6.96-.96-9.47.71-7,1.79-17.06,3.24-23.77.21-.97.36-3,1.72-2.75l-4,35.99Z"/>
          <g>
            <path d="M272.02,185.54c.37,10.34,3.36,32.48.55,41.48-2.93,9.37-11.04,11.68-20.12,11.88-23.1.5-49.65.37-72.94.14-3.23-.04-20.57,0-20.96-.03-5.3-.48-10.26-1.79-13.53-4.47-3.57-2.95-5.7-8.42-6-13,2.04-22.05-.7-46.31,2.05-68.03.88-7,5.06-22.05,5.06-22.05,1.3-6.38-1.43-5.74-3.42-8.72-6.94-10.42-2.9-29.06-2.61-41.2.3-12.77-.74-26.38.96-39.04.93-6.82,5.89-29.93,8.49-35.51,1.9-4.09,5.04-4.7,8.51-6.99,0,0,22.15,2,22.5,2h49c.35,0,23.5-2,23.5-2,3.82,2.01,8.27,4.07,10.08,8.42,1.96,4.74,7.35,30.42,7.91,36.09,2.15,21.85-.06,45.89,2.01,67.99-.67,5.92-3.68,9.89-7.63,13.97,1.25,9.96,5.7,21.28,6.62,31.04.84,8.82-.35,18.98-.03,28.03ZM268.08,222.52c-.8-34.34.18-68.52-9.28-101.76-1.4-2.98-4.02-4.4-7.22-4.78-9.58-1.16-24.77,1.8-34.97,2.07-9.49.24-18.71-.81-28.01-1.09-9.94-.3-19.89-.63-29.82-.74l-4.47,3.53c-1.18,11.82-7.13,25.34-8.24,36.76-1.76,17.96-1.14,41.65-.97,60.03.02,1.78-.91,3.53-.87,4.99.2,6.75,6.2,10.93,12.28,11.52,31.86,3.09,68.68-2.43,101.07-.03,5.85-.7,9.8-4.62,10.5-10.5ZM266.84,115.28c-.21-34.26,1.7-70.3-8.23-103.33-2.99-9.95-16.29-5.16-24.01-4.91-24.7.79-49.32,1.17-73.91-1.74-2.07.76-4.85,1.84-6.08,3.75-1.01,1.57-8.17,32.88-8.54,36.46-1.75,16.93-.68,35.89-.97,53.03-.11,6.66-3.15,13.71,1.1,20.32l2.86.15s1.92-5.01,2.01-5.01c4.91-3.49,8.54-4.21,14.54-4.05,19.16.51,37.36,2.64,56.99,2.09,8.77-.24,25.57-3.78,33.19-1.27,1.98.65,3.43,2.35,5.26,3.23.13-.18,2.14,3.37,2.14,3.37l1.37,1.61,2.28-3.7Z"/>
            <path class="cls-2" d="M259.05,80l3.72,32.65c-.1-.01-.19-.01-.28-.01-.41,0-.78.03-1.14.11-1.17-8.27-4.13-28.57-4.3-31.26-.13-2,.23-1.56,2-1.49Z"/>
            <path d="M198.06,18l-4.05,25.95h-7.91c-.78-5.26-2.45-10.5-3.92-15.62-.38-1.33.67-2.77-1.61-2.34l-5.68,17.84-7.84.18-2.99-26.01,5.95.05,2.06,13.94,5.09-13.89,7.29-.16,5.11,14.07,2.51-14h5.99Z"/>
            <path class="cls-2" d="M154.57,80.01c1.4,2.79-2.98,23.72-4.51,32.76-.31-.18-.65-.33-1.02-.45l5.53-32.31Z"/>
            <path class="cls-2" d="M182.52,78.04c13.56.56,29.51.53,43.08,0,7.07-.27,20.36-.65,26.71-2.29,1.91-.49,7.75-3.6,7.75-5.25v-28c0-.17,1.35-1.58,2-1.5v30.5c0,2.83-7.95,6.74-10.73,7.27-13.52,2.54-29.2,1.38-42.77,1.43-15.59.06-32.34.99-47.92-1.28-2.93-.43-10.58-4.41-10.58-7.42v-30.5l1.99,8.51c1.39,9.26-4.43,22.36,6.78,26.22,4.71,1.63,17.99,2.08,23.69,2.31Z"/>
          </g>
        </g>
        <g>
          <path d="M14.51,240.07c-1.91-.24-4.72-2.08-5.21-2.41-1.2-.82-6.24-5.99-7.06-7.33-1.29-2.08-2.34-4.22-2.22-6.78,1.3-33.18-2.34-73.31,9.31-104.79,5.06-13.68,22.24-7.04,33.2-6.71,14.83.45,31.26.46,46.09,0,9.79-.31,27.27-6.11,33.33,4.59,2.21,3.9,6.99,29.2,7.86,35.14,3.41,23.4,1.19,50.64,2.05,74.5-.96,4.73-8.24,11.94-12.73,13.27-2.48.74-101.61.9-104.6.53ZM18.78,116.21c-2.04.47-3.62,1.73-4.24,3.76-1.81,13.64-7.43,27.91-8.46,41.54-1.53,20.2-.17,43.16-.54,63.51,1.15,4.37,6.51,8.07,10.98,8.02,31.46-2.88,69.38,3.67,100.07-.03,7.03-.85,10.23-5.75,10.52-12.48-2.13-32.52,1.36-66.69-9.09-97.99-1.15-3.46-2.37-6.08-6.4-6.6-9.68-1.25-25.61,1.82-36,2.1-15.24.41-29.93-1.65-45.01-2.09-3.3-.1-8.85-.43-11.83.26Z"/>
          <path class="cls-2" d="M120.06,149l2.04,11.46c-.67,9.4,3.51,25.04-8.97,28.12-16.75,4.13-53.54,3.32-71.62,2.47-5.37-.25-19.76-1.2-24.18-2.82-11.23-4.13-6.24-20.42-7.27-29.71l1.99-9.51v29.5c0,2.99,5.1,7.28,7.97,8.03,25.14,1.91,50.46,2,75.54.48,6.25-.38,14.19,1.09,19.86-2.14,1.21-.69,4.63-4.36,4.63-5.37v-30.5Z"/>
          <path d="M46.9,143.16l-14.17-.2c-2.79,4.87-2.65,8.32-9.67,7.03-.22-1.74.12-3.12.78-4.72,1.7-4.09,6.63-12.93,9.05-16.95s6.44-8.74,11.22-3.89c4.39,4.46,7.84,18.74,12.92,24.06-5.49,4.34-8.7.1-10.13-5.34ZM44.06,138.99l-4.5-9.97-4.48,8.49c2.12,2.61,5.96,1.21,8.97,1.49Z"/>
          <path class="cls-2" d="M16.06,190.01c-1.44,11.44-2.33,23.08-4.02,34.49-.26,1.74.53,1.68-1.97,1.5.94-10.03,1.57-20.42,3.12-30.37.26-1.65.23-6.51,2.87-5.62Z"/>
          <path class="cls-2" d="M123.05,226c-1.98-.41-1.7-2.05-1.98-3.51-2.02-10.55-2.96-21.79-4-32.49,2.38.97,2.26,4.62,2.69,6.8,1.85,9.45,2.18,19.62,3.29,29.2Z"/>
          <path class="cls-1" d="M44.06,138.99c-3.01-.28-6.85,1.13-8.97-1.49l4.48-8.49,4.5,9.97Z"/>
        </g>
      </g>
    </g>
    <path class="cls-1" d="M298.77,116.21c10.27.05,20.56.42,30.83.75,9.63.31,19.19,1.37,29.01,1.09,9.94-.28,23.48-2.98,33-2.09,4.76.44,6.57,1.25,8,5.99,9.85,32.61,7.95,67.76,8.47,101.58-.29,5.23-5.53,8.9-10.5,9.5-32.51-2.3-69.04,2.98-101.07.02-14.52-1.34-10.6-15.19-10.41-24.51.58-28.18-1.21-60.49,8.64-87.36.78-2.14,1.84-4.04,4.03-4.97ZM303.06,150h17.5c2.32,0,8.82-3.48,10.56-5.44,4.01-4.54,4.18-12.6-.04-17.08-1.37-1.46-7.9-4.48-9.52-4.48h-18l-1.5,1.5v23c0,.33,1.32,1.52,1,2.5ZM401.06,154.5c-1.09,6.95,0,19.33,0,27,0,2.28-7.55,4.91-9.76,5.24-18.63,2.73-48.46,2.06-67.78,1.3-5.89-.23-16.18-.5-21.5-1.5-13.58-2.54-7.79-13.68-8.97-24.03l-1.99-13.51v33.5c0,.28,3.33,3.42,4.07,3.93,5.32,3.7,24.93,4.33,32.38,4.62,19.23.74,47.33,1.13,65.99-2.11,2.2-.38,9.56-4.8,9.56-6.44v-30.5c-.87-.4-1.87,1.65-2,2.5ZM292.06,226l3.99-36c-1.99.41-1.7,2.06-1.98,3.51-1.55,7.99-3.61,22.03-4.01,30.01-.1,2.09-.59,2.87,1.99,2.48ZM404.05,225.99l-2.12-24.37-2.86-11.62c.6,10.1,1.57,20.36,3.13,30.36.21,1.32.36,5.43,1.85,5.63Z"/>
    <path class="cls-1" d="M18.78,116.21c2.97-.69,8.53-.35,11.83-.26,15.07.44,29.76,2.5,45.01,2.09,10.39-.28,26.32-3.35,36-2.1,4.03.52,5.25,3.14,6.4,6.6,10.44,31.31,6.96,65.48,9.09,97.99-.29,6.73-3.49,11.64-10.52,12.48-30.69,3.7-68.61-2.85-100.07.03-4.47.04-9.83-3.65-10.98-8.02.37-20.35-.99-43.31.54-63.51,1.03-13.63,6.65-27.9,8.46-41.54.62-2.03,2.2-3.29,4.24-3.76ZM46.9,143.16c1.43,5.44,4.65,9.68,10.13,5.34-5.09-5.32-8.53-19.6-12.92-24.06-4.78-4.85-8.75-.2-11.22,3.89s-7.35,12.85-9.05,16.95c-.66,1.6-1,2.97-.78,4.72,7.02,1.29,6.88-2.17,9.67-7.03l14.17.2ZM120.06,149v30.5c0,1-3.43,4.68-4.63,5.37-5.66,3.23-13.6,1.77-19.86,2.14-25.08,1.52-50.4,1.43-75.54-.48-2.87-.75-7.97-5.04-7.97-8.03v-29.5l-1.99,9.51c1.03,9.29-3.96,25.58,7.27,29.71,4.42,1.62,18.81,2.57,24.18,2.82,18.08.85,54.87,1.66,71.62-2.47,12.47-3.08,8.3-18.72,8.97-28.12l-2.04-11.46ZM16.06,190.01c-2.65-.89-2.62,3.96-2.87,5.62-1.54,9.95-2.18,20.34-3.12,30.37,2.5.18,1.71.24,1.97-1.5,1.69-11.41,2.58-23.05,4.02-34.49ZM123.05,226c-1.11-9.58-1.44-19.75-3.29-29.2-.43-2.18-.31-5.83-2.69-6.8,1.04,10.7,1.99,21.94,4,32.49.28,1.46,0,3.1,1.98,3.51Z"/>
    <path class="cls-1" d="M158.78,116.22c9.94.11,19.88.45,29.83.74,9.3.28,18.52,1.33,28.01,1.09,10.21-.26,25.4-3.23,34.98-2.07,3.2.39,5.82,1.81,7.22,4.78,9.46,33.24,8.48,67.41,9.28,101.76-.71,5.87-4.65,9.8-10.5,10.5-32.4-2.4-69.21,3.12-101.07.03-6.08-.59-12.08-4.77-12.28-11.52-.04-1.46.89-3.21.88-4.99-.17-18.38-.79-42.07.96-60.03,1.12-11.42,7.06-24.94,8.24-36.76l4.47-3.53ZM190.03,130.96c.08-12.47-28.66-11.19-27,.49.97,6.8,19.57,6.63,20.94,8.64,3.35,4.92-8.1,7.84-12.84,4.35-2.81-2.07-2.48-6.12-9.07-4.43-1.16,16.01,37.14,11.98,27.9-2.41-3.05-4.75-20.84-3.73-19.89-8.08.71-3.28,10.17-3.2,12.4-1.6,1.3.93.67,6.35,7.57,3.04ZM150.06,152v29.5c0,2.16,5.75,6.38,7.97,7.03,5.56,1.64,18.22,2.24,24.48,2.52,15.21.66,33.9.71,49.09,0,5.89-.28,19.07-1.14,24.19-2.81,1.93-.63,7.27-5.34,7.27-6.73v-27c0-.88-1.86-3.63-1.01-5.5h-.99s0,30.5,0,30.5c0,4.29-8.94,7.13-12.51,7.49-23.93,2.37-62.18,2.66-85.99.02-3.02-.34-10.5-3.3-10.5-6.5v-27c0-.17-1.35-1.58-2-1.5ZM151.05,226l4-35.99c-1.37-.25-1.51,1.78-1.72,2.75-1.45,6.7-2.53,16.76-3.24,23.77-.25,2.51-1.71,8.55.96,9.47ZM264.05,226c-1.08-9.76-1.49-20.65-3.25-30.24-.34-1.85-.63-5.06-2.73-5.76,1.34,10.51,1.99,22.16,4,32.49.28,1.45-.02,3.1,1.98,3.51Z"/>
    <path class="cls-1" d="M261.35,112.75c.36-.08.73-.11,1.14-.11.09,0,.18,0,.28.01l-3.72-32.65c-1.77-.07-2.13-.51-2,1.49.17,2.69,3.13,22.99,4.3,31.26ZM262.06,71.5v-30.5c-.65-.08-2,1.33-2,1.5v28c0,1.65-5.84,4.76-7.75,5.25-6.35,1.64-19.64,2.02-26.71,2.29-13.57.53-29.52.56-43.08,0-5.7-.23-18.98-.68-23.69-2.31-11.21-3.86-5.39-16.96-6.78-26.22l-1.99-8.51v30.5c0,3.01,7.65,6.99,10.58,7.42,15.58,2.27,32.33,1.34,47.92,1.28,13.57-.05,29.25,1.11,42.77-1.43,2.78-.53,10.73-4.44,10.73-7.27ZM151.07,114c-.09,0-2.01,5.01-2.01,5.01l-2.86-.15c-4.25-6.61-1.21-13.66-1.1-20.32.29-17.14-.78-36.1.97-53.03.37-3.58,7.53-34.89,8.54-36.46,1.23-1.91,4.01-2.99,6.08-3.75,24.59,2.91,49.21,2.53,73.91,1.74,7.72-.25,21.02-5.04,24.01,4.91,9.93,33.03,8.02,69.07,8.23,103.33l-2.28,3.7-1.37-1.61s-2.01-3.55-2.14-3.37c-1.83-.88-3.28-2.58-5.26-3.23-7.62-2.51-24.42,1.03-33.19,1.27-19.63.55-37.83-1.58-56.99-2.09-6-.16-9.63.56-14.54,4.05ZM150.06,112.77c1.53-9.04,5.91-29.97,4.51-32.76l-5.53,32.31c.37.12.71.27,1.02.45ZM182.18,28.33c1.47,5.12,3.14,10.36,3.92,15.63h7.91s4.05-25.96,4.05-25.96h-5.99s-2.51,14.01-2.51,14.01l-5.11-14.07-7.29.16-5.09,13.89-2.06-13.94-5.95-.05,2.99,26.01,7.84-.18,5.68-17.84c2.28-.43,1.23,1.01,1.61,2.34Z"/>
  </g>
</svg>