<?xml version="1.0" encoding="UTF-8"?>
<svg id="Layer_2" data-name="Layer 2" xmlns="http://www.w3.org/2000/svg" viewBox="0 0 130.77 127.76">
  <defs>
    <style>
      .cls-1 {
        fill: #fff;
      }

      .cls-2 {
        fill: #9da5ad;
      }
    </style>
  </defs>
  <g id="Z_Image" data-name="Z Image">
    <g>
      <path d="M23.03,0c3.4.98,9,1.82,12.51,1.99,25.37,1.22,50.57.42,75.99-1.01,6.76.93,8.78,4.45,10.62,10.38,10.14,32.65,8.38,68.01,8.62,101.91-2.07,7.25-6.43,10.83-13.54,12.46-23.28,5.31-55.87-1.82-79.77,1.19-2.34.29-3.07.06-3.07.06l-12.74-.04s-12.93-1.33-14.4-2.15S1.36,114.95.04,113c.1-6.32-.13-12.69,0-19,.33-15.84.17-37.64,2.24-53.26.66-5.03,6.14-29.17,7.98-33.01C12.32,3.42,16.98,1.62,21.04,0h2ZM19.78,6.26l-4.85,4.14c-.86,11.46-6.81,24.14-7.89,35.11-2.03,20.75-.07,44.06-1.06,65.04-.34,5.26,4.5,9.32,9.48,9.52,32.21-2.36,68.35,2.91,100.08-.02,5.52-.51,9.69-3.9,10.47-9.52-1.75-32,1.4-67.32-9.07-97.97-1.33-3.9-2.86-6.32-7.47-6.62-6.73-.43-17.69,1.92-24.92,2.11-21.67.57-43.19-.72-64.78-1.79Z"/>
      <g>
        <path class="cls-2" d="M12.03,113c-1.69-.06-2.13.67-1.77-1.26,1.77-9.52,1.97-19.84,3.79-29.23.28-1.45-.02-3.1,1.98-3.51l-4,34Z"/>
        <path class="cls-2" d="M118,79l4,34c-1.28,1.7-1.81-.13-1.99-1.49-1.31-10.34-2.07-20.77-4.01-31.02l2-1.49Z"/>
      </g>
      <g>
        <path d="M39.03,49h16.99v5h-26.99c-.27-9.71,13.7-14.37,16.99-23h-15.99l.44-4.06c.84-1.23,20.3-1.44,23.05-.93,3.31.61,3.06,3.01,1.55,5.55-2.36,3.99-11.18,10.03-14.55,14.44-.77,1.01-1.93,1.26-1.49,3.01Z"/>
        <path class="cls-2" d="M119,40l1.99,8.51c-1,9.03,3.86,23.8-6.97,28.01-3.83,1.49-14.87,2.28-19.47,2.52-17.53.92-40.49.91-58.01-.05-4.79-.26-13.42-.84-17.74-2.25-1.94-.63-7.76-4.36-7.76-6.24v-28.5h.99c-.38,1.25,1.01,2.9,1.01,3.5v24c0,1.17,5.63,5.15,7.55,5.45,16.09,2.47,40.45,2.54,56.97,2.09,9.22-.25,24.01-.58,32.71-2.28,2.61-.51,8.73-3.37,8.73-6.27v-28.5Z"/>
      </g>
    </g>
    <path class="cls-1" d="M19.78,6.26c21.59,1.08,43.11,2.36,64.78,1.79,7.24-.19,18.19-2.54,24.92-2.11,4.61.29,6.14,2.72,7.47,6.62,10.46,30.66,7.32,65.97,9.07,97.97-.78,5.63-4.95,9.02-10.47,9.52-31.73,2.93-67.87-2.34-100.08.02-4.98-.2-9.83-4.25-9.48-9.52.98-20.98-.97-44.29,1.06-65.04,1.07-10.97,7.02-23.66,7.89-35.11l4.85-4.14ZM39.03,49c-.44-1.75.72-2,1.49-3.01,3.37-4.41,12.19-10.45,14.55-14.44,1.51-2.54,1.76-4.94-1.55-5.55-2.75-.51-22.21-.3-23.05.93l-.44,4.06h15.99c-3.3,8.63-17.26,13.29-16.99,23h26.99v-5h-16.99ZM119,40v28.5c0,2.9-6.13,5.76-8.73,6.27-8.7,1.69-23.49,2.03-32.71,2.28-16.52.44-40.88.38-56.97-2.09-1.93-.3-7.55-4.27-7.55-5.45v-24c0-.6-1.39-2.25-1.01-3.49h-.99s0,28.49,0,28.49c0,1.88,5.83,5.61,7.76,6.24,4.32,1.41,12.95,1.99,17.74,2.25,17.52.96,40.49.98,58.01.05,4.6-.24,15.64-1.03,19.47-2.52,10.83-4.21,5.97-18.98,6.97-28.01l-1.99-8.51ZM12.03,113l4-34c-1.99.41-1.7,2.06-1.98,3.51-1.82,9.39-2.02,19.71-3.79,29.23-.36,1.93.08,1.2,1.77,1.26ZM118,79l-2,1.49c1.94,10.25,2.7,20.68,4.01,31.02.17,1.36.7,3.19,1.99,1.49l-4-34Z"/>
  </g>
</svg>