<?xml version="1.0" encoding="UTF-8"?>
<svg id="Layer_2" data-name="Layer 2" xmlns="http://www.w3.org/2000/svg" viewBox="0 0 131.66 126.17">
  <defs>
    <style>
      .cls-1 {
        fill: #fff;
      }

      .cls-2 {
        fill: #9da5ad;
      }
    </style>
  </defs>
  <g id="E_Image" data-name="E Image">
    <g>
      <path d="M12.26,125.21s-4.18-1.2-6.11-2.91c-2.95-2.6-4.44-5.44-6.02-8.98-.08-18.93-.43-38.6.49-57.57C1.16,44.56,5.43,17.83,9.58,7.72,10.8,4.77,15.03.85,18.22.35c17.66-.2,35.35,2.15,52.99,1.99,12.5-.11,27.68-3.22,40-2.1,5.02.46,9.05,3.54,10.78,8.22,9.2,25,8.26,56.99,8.64,83.4l1.04,2.42v18c-3.18,9.03-9.23,12.86-18.63,13.87M19.37,5.51c-2.19.5-4.09,2.05-4.79,4.2-1.17,11.28-6.85,24.18-7.91,35.09-1.74,17.84-.92,39.84-.96,58.03,0,2.07-1.05,4-.98,5.89.23,5.99,4.69,10.1,10.39,10.62,32.37,2.98,69.24-2.36,102.09,0,4.79-.61,8.05-4.88,8.48-9.52-1-32.32,1.6-67.51-8.49-98.55-.43-1.32-.5-2.32-1.56-3.44-4.47-4.7-22.64-.68-29.42-.48-13.25.38-27.85.41-41.09,0-6.64-.21-19.99-3.13-25.75-1.82Z"/>
      <g>
        <path class="cls-2" d="M121.65,112.29c-1.94-.41-1.75-2.01-2-3.49-1.63-10.08-1.98-20.47-3.99-30.5,2.01-.3,2.6.77,2.96,2.53,1.94,9.58,2.41,21.67,3.03,31.46Z"/>
        <path class="cls-2" d="M15.65,78.3l-4.49,34.99c-2.05-1.34-1.14-2.31-1.06-3.96.4-8.66,2.28-20.71,3.58-29.53.26-1.74-.52-1.68,1.97-1.5Z"/>
      </g>
      <g>
        <path class="cls-1" d="M19.37,5.51c5.76-1.31,19.11,1.61,25.75,1.82,13.24.42,27.84.38,41.09,0,6.78-.19,24.95-4.22,29.42.48,1.06,1.12,1.13,2.12,1.56,3.44,10.09,31.04,7.49,66.23,8.49,98.55-.43,4.64-3.68,8.91-8.48,9.52-32.85-2.36-69.72,2.98-102.09,0-5.7-.52-10.15-4.63-10.39-10.62-.07-1.88.98-3.81.98-5.89.05-18.2-.78-40.19.96-58.03,1.07-10.91,6.74-23.8,7.91-35.09.7-2.15,2.6-3.7,4.79-4.2ZM45.66,16.29h-22l-3,29h28v-6h-19v-9h16v-5h-16l.98-5.56,14.58-.38.44-3.06ZM10.66,39.29v30.5c0,3.33,9.39,7.09,12.49,7.51,19.63,2.6,67.61,3.04,86.77-.24,13.59-2.33,12.05-13.26,11.73-24.25l-1.98-14.51-1.03,29.47c-.43,2.27-3.3,4.77-5.4,5.6-2.7,1.05-10.7,1.68-14.08,1.92-17.42,1.24-34.66.81-52,.02-8.33-.38-18.84.4-26.95-1.05-11.64-2.08-6.48-18.1-7.55-26.45l-1.99-8.51ZM15.65,78.3c-2.5-.18-1.71-.24-1.97,1.5-1.3,8.81-3.18,20.87-3.58,29.53-.08,1.65-.98,2.62,1.06,3.96l4.49-34.99ZM121.65,112.29c-.61-9.79-1.09-21.88-3.03-31.46-.35-1.76-.95-2.83-2.96-2.53,2.01,10.03,2.36,20.42,3.99,30.5.24,1.49.05,3.09,2,3.49Z"/>
        <polygon points="45.66 16.29 45.22 19.35 30.63 19.73 29.66 25.29 45.66 25.29 45.66 30.29 29.66 30.29 29.66 39.29 48.66 39.29 48.66 45.29 20.66 45.29 23.66 16.29 45.66 16.29"/>
        <path class="cls-2" d="M10.66,39.29l1.99,8.51c1.08,8.35-4.09,24.36,7.55,26.45,8.1,1.45,18.62.68,26.95,1.05,17.34.79,34.58,1.22,52-.02,3.39-.24,11.39-.86,14.08-1.92,2.11-.82,4.97-3.33,5.4-5.6l1.03-29.47,1.98,14.51c.33,10.99,1.87,21.93-11.73,24.25-19.17,3.28-67.14,2.85-86.77.24-3.1-.41-12.49-4.18-12.49-7.51v-30.5Z"/>
      </g>
    </g>
  </g>
</svg>